M48
;DRILL file {KiCad 4.0.4-1.fc25-product} date Thu Feb 16 12:06:26 2017
;FORMAT={-:-/ absolute / inch / decimal}
FMAT,2
INCH,TZ
T1C0.031
T2C0.040
%
G90
G05
M72
T1
X1.8358Y-2.1378
X1.8358Y-2.2378
X1.8358Y-2.3378
X1.8358Y-2.4378
X1.8358Y-2.5378
X1.8358Y-2.6378
X1.8358Y-2.7378
X1.8358Y-2.8378
X1.8358Y-2.9378
X1.8358Y-3.0378
X1.8457Y-3.4173
X1.8457Y-3.5173
X1.8457Y-3.6173
X1.8457Y-3.7173
X1.8457Y-3.8173
X1.8457Y-3.9173
X1.8457Y-4.0173
X1.8457Y-4.1173
X1.8457Y-4.2173
X1.8457Y-4.3173
X2.1358Y-2.1378
X2.1358Y-2.2378
X2.1358Y-2.3378
X2.1358Y-2.4378
X2.1358Y-2.5378
X2.1358Y-2.6378
X2.1358Y-2.7378
X2.1358Y-2.8378
X2.1358Y-2.9378
X2.1358Y-3.0378
X2.1457Y-3.4173
X2.1457Y-3.5173
X2.1457Y-3.6173
X2.1457Y-3.7173
X2.1457Y-3.8173
X2.1457Y-3.9173
X2.1457Y-4.0173
X2.1457Y-4.1173
X2.1457Y-4.2173
X2.1457Y-4.3173
T2
X1.4256Y-2.3815
X1.4256Y-2.4815
X1.4256Y-2.5815
X1.4256Y-2.6815
X1.4256Y-2.7815
X1.4256Y-2.8815
X1.4256Y-2.9815
X1.4256Y-3.0815
X1.4256Y-3.1815
X1.4256Y-3.2815
X1.4256Y-3.3815
X1.4256Y-3.4815
X1.4256Y-3.5815
X1.4256Y-3.6815
X1.4256Y-3.7815
X1.4256Y-3.8815
X1.4256Y-3.9815
X1.4256Y-4.0815
X1.4256Y-4.1815
X1.4256Y-4.2815
X1.5256Y-2.3815
X1.5256Y-2.4815
X1.5256Y-2.5815
X1.5256Y-2.6815
X1.5256Y-2.7815
X1.5256Y-2.8815
X1.5256Y-2.9815
X1.5256Y-3.0815
X1.5256Y-3.1815
X1.5256Y-3.2815
X1.5256Y-3.3815
X1.5256Y-3.4815
X1.5256Y-3.5815
X1.5256Y-3.6815
X1.5256Y-3.7815
X1.5256Y-3.8815
X1.5256Y-3.9815
X1.5256Y-4.0815
X1.5256Y-4.1815
X1.5256Y-4.2815
X2.4787Y-3.6157
X2.4787Y-3.7157
X2.4787Y-3.8157
X2.4787Y-3.9157
X2.4787Y-4.0157
X2.4787Y-4.1157
X2.4787Y-4.2157
X2.4787Y-4.3157
X2.5787Y-3.6157
X2.5787Y-3.7157
X2.5787Y-3.8157
X2.5787Y-3.9157
X2.5787Y-4.0157
X2.5787Y-4.1157
X2.5787Y-4.2157
X2.5787Y-4.3157
T0
M30
