G04 #@! TF.FileFunction,Copper,L2,Bot,Signal*
%FSLAX46Y46*%
G04 Gerber Fmt 4.6, Leading zero omitted, Abs format (unit mm)*
G04 Created by KiCad (PCBNEW 4.0.4-1.fc25-product) date Thu Feb 16 12:06:20 2017*
%MOMM*%
%LPD*%
G01*
G04 APERTURE LIST*
%ADD10C,0.100000*%
%ADD11O,2.300000X1.600000*%
%ADD12C,3.000000*%
%ADD13R,1.727200X1.727200*%
%ADD14O,1.727200X1.727200*%
%ADD15C,0.400000*%
%ADD16C,0.254000*%
G04 APERTURE END LIST*
D10*
D11*
X46880000Y-86800000D03*
X46880000Y-89340000D03*
X46880000Y-91880000D03*
X46880000Y-94420000D03*
X46880000Y-96960000D03*
X46880000Y-99500000D03*
X46880000Y-102040000D03*
X46880000Y-104580000D03*
X46880000Y-107120000D03*
X46880000Y-109660000D03*
X54500000Y-109660000D03*
X54500000Y-107120000D03*
X54500000Y-104580000D03*
X54500000Y-102040000D03*
X54500000Y-99500000D03*
X54500000Y-96960000D03*
X54500000Y-94420000D03*
X54500000Y-91880000D03*
X54500000Y-89340000D03*
X54500000Y-86800000D03*
D12*
X37500000Y-55500000D03*
X86500000Y-113500000D03*
X37500000Y-113500000D03*
X86500000Y-55500000D03*
D13*
X65500000Y-91840000D03*
D14*
X62960000Y-91840000D03*
X65500000Y-94380000D03*
X62960000Y-94380000D03*
X65500000Y-96920000D03*
X62960000Y-96920000D03*
X65500000Y-99460000D03*
X62960000Y-99460000D03*
X65500000Y-102000000D03*
X62960000Y-102000000D03*
X65500000Y-104540000D03*
X62960000Y-104540000D03*
X65500000Y-107080000D03*
X62960000Y-107080000D03*
X65500000Y-109620000D03*
X62960000Y-109620000D03*
D11*
X46630000Y-54300000D03*
X46630000Y-56840000D03*
X46630000Y-59380000D03*
X46630000Y-61920000D03*
X46630000Y-64460000D03*
X46630000Y-67000000D03*
X46630000Y-69540000D03*
X46630000Y-72080000D03*
X46630000Y-74620000D03*
X46630000Y-77160000D03*
X54250000Y-77160000D03*
X54250000Y-74620000D03*
X54250000Y-72080000D03*
X54250000Y-69540000D03*
X54250000Y-67000000D03*
X54250000Y-64460000D03*
X54250000Y-61920000D03*
X54250000Y-59380000D03*
X54250000Y-56840000D03*
X54250000Y-54300000D03*
D13*
X38750000Y-108750000D03*
D14*
X36210000Y-108750000D03*
X38750000Y-106210000D03*
X36210000Y-106210000D03*
X38750000Y-103670000D03*
X36210000Y-103670000D03*
X38750000Y-101130000D03*
X36210000Y-101130000D03*
X38750000Y-98590000D03*
X36210000Y-98590000D03*
X38750000Y-96050000D03*
X36210000Y-96050000D03*
X38750000Y-93510000D03*
X36210000Y-93510000D03*
X38750000Y-90970000D03*
X36210000Y-90970000D03*
X38750000Y-88430000D03*
X36210000Y-88430000D03*
X38750000Y-85890000D03*
X36210000Y-85890000D03*
X38750000Y-83350000D03*
X36210000Y-83350000D03*
X38750000Y-80810000D03*
X36210000Y-80810000D03*
X38750000Y-78270000D03*
X36210000Y-78270000D03*
X38750000Y-75730000D03*
X36210000Y-75730000D03*
X38750000Y-73190000D03*
X36210000Y-73190000D03*
X38750000Y-70650000D03*
X36210000Y-70650000D03*
X38750000Y-68110000D03*
X36210000Y-68110000D03*
X38750000Y-65570000D03*
X36210000Y-65570000D03*
X38750000Y-63030000D03*
X36210000Y-63030000D03*
X38750000Y-60490000D03*
X36210000Y-60490000D03*
D15*
X38750000Y-101130000D02*
X44740000Y-107120000D01*
X44740000Y-107120000D02*
X46880000Y-107120000D01*
X46530000Y-107120000D02*
X46880000Y-107120000D01*
X38750000Y-96050000D02*
X46880000Y-104180000D01*
X46880000Y-104180000D02*
X46880000Y-104580000D01*
X38750000Y-93510000D02*
X46880000Y-101640000D01*
X46880000Y-101640000D02*
X46880000Y-102040000D01*
X38750000Y-90970000D02*
X46880000Y-99100000D01*
X46880000Y-99100000D02*
X46880000Y-99500000D01*
X36210000Y-90970000D02*
X37486399Y-89693601D01*
X39263601Y-89693601D02*
X46530000Y-96960000D01*
X37486399Y-89693601D02*
X39263601Y-89693601D01*
X46530000Y-96960000D02*
X46880000Y-96960000D01*
X38750000Y-73190000D02*
X40180000Y-74620000D01*
X40180000Y-74620000D02*
X46630000Y-74620000D01*
X38750000Y-70650000D02*
X45200000Y-70650000D01*
X45200000Y-70650000D02*
X46630000Y-72080000D01*
X36210000Y-70650000D02*
X37473601Y-69386399D01*
X37473601Y-69386399D02*
X44926399Y-69386399D01*
X44926399Y-69386399D02*
X45080000Y-69540000D01*
X45080000Y-69540000D02*
X46630000Y-69540000D01*
X38750000Y-68110000D02*
X45520000Y-68110000D01*
X45520000Y-68110000D02*
X46630000Y-67000000D01*
X36210000Y-65570000D02*
X37473601Y-64306399D01*
X37473601Y-64306399D02*
X44926399Y-64306399D01*
X44926399Y-64306399D02*
X45080000Y-64460000D01*
X45080000Y-64460000D02*
X46630000Y-64460000D01*
X38750000Y-63030000D02*
X45520000Y-63030000D01*
X45520000Y-63030000D02*
X46630000Y-61920000D01*
X36210000Y-63030000D02*
X37486399Y-61753601D01*
X37486399Y-61753601D02*
X43906399Y-61753601D01*
X43906399Y-61753601D02*
X46280000Y-59380000D01*
X46280000Y-59380000D02*
X46630000Y-59380000D01*
X43500000Y-56840000D02*
X44000000Y-56840000D01*
X41551458Y-56840000D02*
X43500000Y-56840000D01*
X44000000Y-56840000D02*
X45080000Y-56840000D01*
X38369870Y-59000000D02*
X39391458Y-59000000D01*
X39391458Y-59000000D02*
X41551458Y-56840000D01*
X45080000Y-56840000D02*
X46630000Y-56840000D01*
X36210000Y-60490000D02*
X37073599Y-59626401D01*
X37073599Y-59626401D02*
X37743469Y-59626401D01*
X37743469Y-59626401D02*
X38369870Y-59000000D01*
X54250000Y-77160000D02*
X55800000Y-77160000D01*
X55800000Y-77160000D02*
X65500000Y-86860000D01*
X65500000Y-86860000D02*
X65500000Y-90576400D01*
X65500000Y-90576400D02*
X65500000Y-91840000D01*
X54250000Y-69540000D02*
X52700000Y-69540000D01*
X52499990Y-69740010D02*
X52499990Y-77739903D01*
X52700000Y-69540000D02*
X52499990Y-69740010D01*
X52499990Y-77739903D02*
X54510087Y-79750000D01*
X54510087Y-79750000D02*
X56250000Y-79750000D01*
X56250000Y-79750000D02*
X62960000Y-86460000D01*
X62960000Y-86460000D02*
X62960000Y-91840000D01*
X54250000Y-74620000D02*
X55800000Y-74620000D01*
X66963601Y-85783601D02*
X66963601Y-94137713D01*
X55800000Y-74620000D02*
X66963601Y-85783601D01*
X66963601Y-94137713D02*
X66721314Y-94380000D01*
X66721314Y-94380000D02*
X65500000Y-94380000D01*
X46880000Y-91880000D02*
X46880000Y-89340000D01*
X46880000Y-94420000D02*
X46880000Y-91880000D01*
X36210000Y-103670000D02*
X37486399Y-104946399D01*
X37486399Y-104946399D02*
X40616399Y-104946399D01*
X40616399Y-104946399D02*
X45330000Y-109660000D01*
X45330000Y-109660000D02*
X46880000Y-109660000D01*
X48250000Y-62490000D02*
X48250000Y-75890000D01*
X48250000Y-75890000D02*
X46980000Y-77160000D01*
X46980000Y-77160000D02*
X46630000Y-77160000D01*
X54250000Y-56840000D02*
X53900000Y-56840000D01*
X53900000Y-56840000D02*
X48250000Y-62490000D01*
X36210000Y-68110000D02*
X34946399Y-69373601D01*
X34946399Y-69373601D02*
X34946399Y-71926399D01*
X34946399Y-71926399D02*
X35346401Y-72326401D01*
X35346401Y-72326401D02*
X36210000Y-73190000D01*
X38750000Y-78270000D02*
X45250000Y-78270000D01*
X45250000Y-78270000D02*
X46540000Y-78270000D01*
X46880000Y-89340000D02*
X46530000Y-89340000D01*
X46530000Y-89340000D02*
X45250000Y-88060000D01*
X45250000Y-88060000D02*
X45250000Y-78270000D01*
X38750000Y-98590000D02*
X37486399Y-97326399D01*
X37486399Y-97326399D02*
X37486399Y-94786399D01*
X37486399Y-94786399D02*
X37073599Y-94373599D01*
X37073599Y-94373599D02*
X36210000Y-93510000D01*
X36210000Y-103670000D02*
X37486399Y-102393601D01*
X37486399Y-102393601D02*
X37486399Y-99853601D01*
X37486399Y-99853601D02*
X37886401Y-99453599D01*
X37886401Y-99453599D02*
X38750000Y-98590000D01*
X36210000Y-85890000D02*
X37486399Y-84613601D01*
X37486399Y-84613601D02*
X37486399Y-79533601D01*
X37486399Y-79533601D02*
X37886401Y-79133599D01*
X37886401Y-79133599D02*
X38750000Y-78270000D01*
X38750000Y-78270000D02*
X37473601Y-76993601D01*
X37473601Y-76993601D02*
X37473601Y-74453601D01*
X37473601Y-74453601D02*
X37073599Y-74053599D01*
X37073599Y-74053599D02*
X36210000Y-73190000D01*
X46540000Y-78270000D02*
X46630000Y-78360000D01*
X38750000Y-60490000D02*
X41060010Y-58179990D01*
X41060010Y-58179990D02*
X51360010Y-58179990D01*
X51360010Y-58179990D02*
X52700000Y-56840000D01*
X52700000Y-56840000D02*
X54250000Y-56840000D01*
X46630000Y-78360000D02*
X46630000Y-77160000D01*
X48430010Y-107617060D02*
X48430010Y-98250000D01*
X48430010Y-98250000D02*
X48430010Y-95620010D01*
X62960000Y-109620000D02*
X58496359Y-105156359D01*
X58496359Y-105156359D02*
X58496359Y-88749289D01*
X52220030Y-83950030D02*
X46630000Y-78360000D01*
X58496359Y-88749289D02*
X53697100Y-83950030D01*
X53697100Y-83950030D02*
X52220030Y-83950030D01*
X46880000Y-109660000D02*
X46880000Y-109167070D01*
X46880000Y-109167070D02*
X48430010Y-107617060D01*
X48430010Y-95620010D02*
X47230000Y-94420000D01*
X54850000Y-89340000D02*
X54500000Y-89340000D01*
X46880000Y-109660000D02*
X47230000Y-109660000D01*
X62960000Y-109620000D02*
X64236399Y-108343601D01*
X64236399Y-108343601D02*
X64236399Y-100736399D01*
X64236399Y-100736399D02*
X63823599Y-100323599D01*
X63823599Y-100323599D02*
X62960000Y-99460000D01*
X62960000Y-99460000D02*
X64223601Y-98196399D01*
X64223601Y-98196399D02*
X64223601Y-95643601D01*
X64223601Y-95643601D02*
X63823599Y-95243599D01*
X63823599Y-95243599D02*
X62960000Y-94380000D01*
X46880000Y-89340000D02*
X48430000Y-89340000D01*
X48430000Y-89340000D02*
X54500000Y-89340000D01*
X54250000Y-72080000D02*
X55800000Y-72080000D01*
X55800000Y-72080000D02*
X67763611Y-84043611D01*
X67763611Y-84043611D02*
X67763611Y-94656389D01*
X67763611Y-94656389D02*
X66363599Y-96056401D01*
X66363599Y-96056401D02*
X65500000Y-96920000D01*
X55750000Y-80750000D02*
X61496399Y-86496399D01*
X61496399Y-86496399D02*
X61496399Y-95456399D01*
X61496399Y-95456399D02*
X62096401Y-96056401D01*
X62096401Y-96056401D02*
X62960000Y-96920000D01*
X54378703Y-80750000D02*
X55750000Y-80750000D01*
X54250000Y-67000000D02*
X53900000Y-67000000D01*
X53900000Y-67000000D02*
X51699980Y-69200020D01*
X51699980Y-69200020D02*
X51699980Y-78071277D01*
X51699980Y-78071277D02*
X54378703Y-80750000D01*
X69363631Y-111780521D02*
X69363631Y-103323631D01*
X69363631Y-103323631D02*
X65500000Y-99460000D01*
X50349960Y-111349960D02*
X53283641Y-114283641D01*
X53283641Y-114283641D02*
X66860511Y-114283641D01*
X66860511Y-114283641D02*
X69363631Y-111780521D01*
X54500000Y-99500000D02*
X52950000Y-99500000D01*
X52950000Y-99500000D02*
X50349960Y-102100040D01*
X50349960Y-102100040D02*
X50349960Y-111349960D01*
X54500000Y-102040000D02*
X52950000Y-102040000D01*
X52950000Y-102040000D02*
X51149970Y-103840030D01*
X51149970Y-103840030D02*
X51149970Y-110902651D01*
X68563621Y-111449147D02*
X68563621Y-105063621D01*
X51149970Y-110902651D02*
X53730950Y-113483631D01*
X53730950Y-113483631D02*
X66529137Y-113483631D01*
X66529137Y-113483631D02*
X68563621Y-111449147D01*
X68563621Y-105063621D02*
X66363599Y-102863599D01*
X66363599Y-102863599D02*
X65500000Y-102000000D01*
X55500000Y-81750000D02*
X60696389Y-86946389D01*
X60696389Y-99736389D02*
X62096401Y-101136401D01*
X60696389Y-86946389D02*
X60696389Y-99736389D01*
X62096401Y-101136401D02*
X62960000Y-102000000D01*
X50899970Y-78402651D02*
X54247319Y-81750000D01*
X54247319Y-81750000D02*
X55500000Y-81750000D01*
X54250000Y-64460000D02*
X53900000Y-64460000D01*
X53900000Y-64460000D02*
X50899970Y-67460030D01*
X50899970Y-67460030D02*
X50899970Y-78402651D01*
X54500000Y-104580000D02*
X52950000Y-104580000D01*
X66363599Y-105403599D02*
X65500000Y-104540000D01*
X52950000Y-104580000D02*
X51949980Y-105580020D01*
X51949980Y-105580020D02*
X51949980Y-110571277D01*
X67763611Y-106803611D02*
X66363599Y-105403599D01*
X51949980Y-110571277D02*
X54062324Y-112683621D01*
X54062324Y-112683621D02*
X66197763Y-112683621D01*
X66197763Y-112683621D02*
X67763611Y-111117773D01*
X67763611Y-111117773D02*
X67763611Y-106803611D01*
X54250000Y-61920000D02*
X53900000Y-61920000D01*
X53900000Y-61920000D02*
X50099960Y-65720040D01*
X50099960Y-65720040D02*
X50099960Y-78734025D01*
X50099960Y-78734025D02*
X53915945Y-82550010D01*
X59896379Y-87396379D02*
X59896379Y-101476379D01*
X53915945Y-82550010D02*
X55050010Y-82550010D01*
X55050010Y-82550010D02*
X59896379Y-87396379D01*
X59896379Y-101476379D02*
X62096401Y-103676401D01*
X62096401Y-103676401D02*
X62960000Y-104540000D01*
X65866389Y-111883611D02*
X66963601Y-110786399D01*
X66963601Y-110786399D02*
X66963601Y-108543601D01*
X66963601Y-108543601D02*
X66363599Y-107943599D01*
X66363599Y-107943599D02*
X65500000Y-107080000D01*
X54500000Y-107120000D02*
X54500000Y-107330087D01*
X54500000Y-107330087D02*
X52749990Y-109080097D01*
X52749990Y-109080097D02*
X52749990Y-110239903D01*
X52749990Y-110239903D02*
X54393698Y-111883611D01*
X54393698Y-111883611D02*
X65866389Y-111883611D01*
X54350020Y-83350020D02*
X59096369Y-88096369D01*
X59096369Y-88096369D02*
X59096369Y-103216369D01*
X59096369Y-103216369D02*
X62096401Y-106216401D01*
X62096401Y-106216401D02*
X62960000Y-107080000D01*
X53584571Y-83350020D02*
X54350020Y-83350020D01*
X54250000Y-59380000D02*
X53900000Y-59380000D01*
X53900000Y-59380000D02*
X49299950Y-63980050D01*
X49299950Y-63980050D02*
X49299950Y-79065399D01*
X49299950Y-79065399D02*
X53584571Y-83350020D01*
X54500000Y-109660000D02*
X56050000Y-109660000D01*
X56050000Y-109660000D02*
X57473601Y-111083601D01*
X57473601Y-111083601D02*
X64036399Y-111083601D01*
X64036399Y-111083601D02*
X64636401Y-110483599D01*
X64636401Y-110483599D02*
X65500000Y-109620000D01*
X43263601Y-110013601D02*
X48133651Y-114883651D01*
X48133651Y-114883651D02*
X49250000Y-114883651D01*
X36210000Y-108750000D02*
X37473601Y-110013601D01*
X37473601Y-110013601D02*
X43263601Y-110013601D01*
X36210000Y-106210000D02*
X36210000Y-108750000D01*
X49250000Y-114883651D02*
X67109043Y-114883651D01*
X67109043Y-114883651D02*
X69963641Y-112029053D01*
X69963641Y-99463641D02*
X68363621Y-97863621D01*
X69963641Y-112029053D02*
X69963641Y-99463641D01*
X68363621Y-97863621D02*
X68363621Y-82863621D01*
X68363621Y-82863621D02*
X57250000Y-71750000D01*
X57250000Y-71750000D02*
X57250000Y-56950000D01*
X57250000Y-56950000D02*
X54600000Y-54300000D01*
X54600000Y-54300000D02*
X54250000Y-54300000D01*
X54850000Y-86800000D02*
X56050010Y-88000010D01*
X54500000Y-86800000D02*
X54850000Y-86800000D01*
X56050010Y-88000010D02*
X56050010Y-89977040D01*
X55347060Y-90679990D02*
X53652940Y-90679990D01*
X56050010Y-89977040D02*
X55347060Y-90679990D01*
X53652940Y-90679990D02*
X49250000Y-95082930D01*
X49250000Y-95082930D02*
X49250000Y-114883651D01*
X46630000Y-54300000D02*
X54250000Y-54300000D01*
X46880000Y-86800000D02*
X54500000Y-86800000D01*
D16*
G36*
X89290000Y-116290000D02*
X72877000Y-116290000D01*
X72877000Y-113116187D01*
X84357277Y-113116187D01*
X84364982Y-113519454D01*
X84364630Y-113922815D01*
X84373080Y-113943266D01*
X84373503Y-113965387D01*
X84667261Y-114674582D01*
X84677343Y-114679635D01*
X84688980Y-114707800D01*
X85289041Y-115308909D01*
X85319895Y-115321721D01*
X85325418Y-115332739D01*
X85700954Y-115479950D01*
X86073459Y-115634628D01*
X86095586Y-115634647D01*
X86116187Y-115642723D01*
X86519454Y-115635018D01*
X86922815Y-115635370D01*
X86943266Y-115626920D01*
X86965387Y-115626497D01*
X87674582Y-115332739D01*
X87679635Y-115322657D01*
X87707800Y-115311020D01*
X88308909Y-114710959D01*
X88321721Y-114680105D01*
X88332739Y-114674582D01*
X88479950Y-114299046D01*
X88634628Y-113926541D01*
X88634647Y-113904414D01*
X88642723Y-113883813D01*
X88635018Y-113480546D01*
X88635370Y-113077185D01*
X88626920Y-113056734D01*
X88626497Y-113034613D01*
X88332739Y-112325418D01*
X88322657Y-112320365D01*
X88311020Y-112292200D01*
X87710959Y-111691091D01*
X87680105Y-111678279D01*
X87674582Y-111667261D01*
X87299046Y-111520050D01*
X86926541Y-111365372D01*
X86904414Y-111365353D01*
X86883813Y-111357277D01*
X86480546Y-111364982D01*
X86077185Y-111364630D01*
X86056734Y-111373080D01*
X86034613Y-111373503D01*
X85325418Y-111667261D01*
X85320365Y-111677343D01*
X85292200Y-111688980D01*
X84691091Y-112289041D01*
X84678279Y-112319895D01*
X84667261Y-112325418D01*
X84520050Y-112700954D01*
X84365372Y-113073459D01*
X84365353Y-113095586D01*
X84357277Y-113116187D01*
X72877000Y-113116187D01*
X72877000Y-85000000D01*
X72866994Y-84950590D01*
X72837344Y-84907804D01*
X58627000Y-71445373D01*
X58627000Y-55116187D01*
X84357277Y-55116187D01*
X84364982Y-55519454D01*
X84364630Y-55922815D01*
X84373080Y-55943266D01*
X84373503Y-55965387D01*
X84667261Y-56674582D01*
X84677343Y-56679635D01*
X84688980Y-56707800D01*
X85289041Y-57308909D01*
X85319895Y-57321721D01*
X85325418Y-57332739D01*
X85700954Y-57479950D01*
X86073459Y-57634628D01*
X86095586Y-57634647D01*
X86116187Y-57642723D01*
X86519454Y-57635018D01*
X86922815Y-57635370D01*
X86943266Y-57626920D01*
X86965387Y-57626497D01*
X87674582Y-57332739D01*
X87679635Y-57322657D01*
X87707800Y-57311020D01*
X88308909Y-56710959D01*
X88321721Y-56680105D01*
X88332739Y-56674582D01*
X88479950Y-56299046D01*
X88634628Y-55926541D01*
X88634647Y-55904414D01*
X88642723Y-55883813D01*
X88635018Y-55480546D01*
X88635370Y-55077185D01*
X88626920Y-55056734D01*
X88626497Y-55034613D01*
X88332739Y-54325418D01*
X88322657Y-54320365D01*
X88311020Y-54292200D01*
X87710959Y-53691091D01*
X87680105Y-53678279D01*
X87674582Y-53667261D01*
X87299046Y-53520050D01*
X86926541Y-53365372D01*
X86904414Y-53365353D01*
X86883813Y-53357277D01*
X86480546Y-53364982D01*
X86077185Y-53364630D01*
X86056734Y-53373080D01*
X86034613Y-53373503D01*
X85325418Y-53667261D01*
X85320365Y-53677343D01*
X85292200Y-53688980D01*
X84691091Y-54289041D01*
X84678279Y-54319895D01*
X84667261Y-54325418D01*
X84520050Y-54700954D01*
X84365372Y-55073459D01*
X84365353Y-55095586D01*
X84357277Y-55116187D01*
X58627000Y-55116187D01*
X58627000Y-51250000D01*
X58616994Y-51200590D01*
X58588553Y-51158965D01*
X58546159Y-51131685D01*
X58500000Y-51123000D01*
X34710000Y-51123000D01*
X34710000Y-32710000D01*
X89290000Y-32710000D01*
X89290000Y-116290000D01*
X89290000Y-116290000D01*
G37*
X89290000Y-116290000D02*
X72877000Y-116290000D01*
X72877000Y-113116187D01*
X84357277Y-113116187D01*
X84364982Y-113519454D01*
X84364630Y-113922815D01*
X84373080Y-113943266D01*
X84373503Y-113965387D01*
X84667261Y-114674582D01*
X84677343Y-114679635D01*
X84688980Y-114707800D01*
X85289041Y-115308909D01*
X85319895Y-115321721D01*
X85325418Y-115332739D01*
X85700954Y-115479950D01*
X86073459Y-115634628D01*
X86095586Y-115634647D01*
X86116187Y-115642723D01*
X86519454Y-115635018D01*
X86922815Y-115635370D01*
X86943266Y-115626920D01*
X86965387Y-115626497D01*
X87674582Y-115332739D01*
X87679635Y-115322657D01*
X87707800Y-115311020D01*
X88308909Y-114710959D01*
X88321721Y-114680105D01*
X88332739Y-114674582D01*
X88479950Y-114299046D01*
X88634628Y-113926541D01*
X88634647Y-113904414D01*
X88642723Y-113883813D01*
X88635018Y-113480546D01*
X88635370Y-113077185D01*
X88626920Y-113056734D01*
X88626497Y-113034613D01*
X88332739Y-112325418D01*
X88322657Y-112320365D01*
X88311020Y-112292200D01*
X87710959Y-111691091D01*
X87680105Y-111678279D01*
X87674582Y-111667261D01*
X87299046Y-111520050D01*
X86926541Y-111365372D01*
X86904414Y-111365353D01*
X86883813Y-111357277D01*
X86480546Y-111364982D01*
X86077185Y-111364630D01*
X86056734Y-111373080D01*
X86034613Y-111373503D01*
X85325418Y-111667261D01*
X85320365Y-111677343D01*
X85292200Y-111688980D01*
X84691091Y-112289041D01*
X84678279Y-112319895D01*
X84667261Y-112325418D01*
X84520050Y-112700954D01*
X84365372Y-113073459D01*
X84365353Y-113095586D01*
X84357277Y-113116187D01*
X72877000Y-113116187D01*
X72877000Y-85000000D01*
X72866994Y-84950590D01*
X72837344Y-84907804D01*
X58627000Y-71445373D01*
X58627000Y-55116187D01*
X84357277Y-55116187D01*
X84364982Y-55519454D01*
X84364630Y-55922815D01*
X84373080Y-55943266D01*
X84373503Y-55965387D01*
X84667261Y-56674582D01*
X84677343Y-56679635D01*
X84688980Y-56707800D01*
X85289041Y-57308909D01*
X85319895Y-57321721D01*
X85325418Y-57332739D01*
X85700954Y-57479950D01*
X86073459Y-57634628D01*
X86095586Y-57634647D01*
X86116187Y-57642723D01*
X86519454Y-57635018D01*
X86922815Y-57635370D01*
X86943266Y-57626920D01*
X86965387Y-57626497D01*
X87674582Y-57332739D01*
X87679635Y-57322657D01*
X87707800Y-57311020D01*
X88308909Y-56710959D01*
X88321721Y-56680105D01*
X88332739Y-56674582D01*
X88479950Y-56299046D01*
X88634628Y-55926541D01*
X88634647Y-55904414D01*
X88642723Y-55883813D01*
X88635018Y-55480546D01*
X88635370Y-55077185D01*
X88626920Y-55056734D01*
X88626497Y-55034613D01*
X88332739Y-54325418D01*
X88322657Y-54320365D01*
X88311020Y-54292200D01*
X87710959Y-53691091D01*
X87680105Y-53678279D01*
X87674582Y-53667261D01*
X87299046Y-53520050D01*
X86926541Y-53365372D01*
X86904414Y-53365353D01*
X86883813Y-53357277D01*
X86480546Y-53364982D01*
X86077185Y-53364630D01*
X86056734Y-53373080D01*
X86034613Y-53373503D01*
X85325418Y-53667261D01*
X85320365Y-53677343D01*
X85292200Y-53688980D01*
X84691091Y-54289041D01*
X84678279Y-54319895D01*
X84667261Y-54325418D01*
X84520050Y-54700954D01*
X84365372Y-55073459D01*
X84365353Y-55095586D01*
X84357277Y-55116187D01*
X58627000Y-55116187D01*
X58627000Y-51250000D01*
X58616994Y-51200590D01*
X58588553Y-51158965D01*
X58546159Y-51131685D01*
X58500000Y-51123000D01*
X34710000Y-51123000D01*
X34710000Y-32710000D01*
X89290000Y-32710000D01*
X89290000Y-116290000D01*
M02*
